<!DOCTYPE svg PUBLIC "-//W3C//DTD SVG 1.1//EN" "http://www.w3.org/Graphics/SVG/1.1/DTD/svg11.dtd">
<!-- Uploaded to: SVG Repo, www.svgrepo.com, Transformed by: SVG Repo Mixer Tools -->
<svg fill="#ffffff" height="80px" width="80px" version="1.1" id="Capa_1" xmlns="http://www.w3.org/2000/svg" xmlns:xlink="http://www.w3.org/1999/xlink" viewBox="-31.8 -31.8 123.60 123.60" xml:space="preserve" stroke="#ffffff" stroke-width="1.2">
<g id="SVGRepo_bgCarrier" stroke-width="0" transform="translate(0,0), scale(1)">
<path transform="translate(-31.8, -31.8), scale(3.8625000000000003)" d="M16,27.66473604845149C17.836989267099337,27.531889490889917,19.74631348565804,28.018684347542603,21.444224664283773,27.3050490031321C23.16386112866351,26.58228247920135,24.346795103846105,25.03945295625215,25.578725954495802,23.638779048107608C26.853430180744816,22.18947290453067,28.484964144092622,20.826621917710433,28.81479900996692,18.924894249646304C29.143986529127783,17.026898986137095,28.022265959960524,15.215085961487981,27.353018402185725,13.408747635069822C26.746818094350928,11.772577526105527,25.91291547783844,10.298130676158001,25.055543906284427,8.778444712881956C24.07036696197934,7.0322244936950975,23.50203909400441,4.953049148566875,21.901355802675017,3.7457084069590163C20.238801360582517,2.4917003692963453,18.08241268174773,1.9616054104136227,16,1.9481572008558672C13.913025838018143,1.9346795332840396,12.0196302217148,2.9463142117023953,10.061823177226032,3.6692487708799177C7.944413025292387,4.451117943889189,5.039609649797236,4.4152524839737595,3.9562243158920225,6.395409390254914C2.8102984668169793,8.489874686321556,4.815856970093566,11.040560839149906,4.723574589006587,13.426229485493486C4.650838230416268,15.306597634800076,3.0433133270339057,17.027153214053968,3.474109813191154,18.858952696066734C3.904952669343555,20.690949348984628,5.912301194947096,21.640275183061735,7.01413797042402,23.16598584475567C8.174394104340921,24.77258964779771,8.390808016778962,27.23369991285119,10.16288818223262,28.1208875837792C11.93018715626909,29.0056815627285,14.028735545949909,27.80729305814897,16,27.66473604845149" fill="#f00505" strokewidth="0"/>
</g>
<g id="SVGRepo_tracerCarrier" stroke-linecap="round" stroke-linejoin="round" stroke="#CCCCCC" stroke-width="2.88"> <g> <path d="M45.563,29.174l-22-15c-0.307-0.208-0.703-0.231-1.031-0.058C22.205,14.289,22,14.629,22,15v30 c0,0.371,0.205,0.711,0.533,0.884C22.679,45.962,22.84,46,23,46c0.197,0,0.394-0.059,0.563-0.174l22-15 C45.836,30.64,46,30.331,46,30S45.836,29.36,45.563,29.174z M24,43.107V16.893L43.225,30L24,43.107z"/> <path d="M30,0C13.458,0,0,13.458,0,30s13.458,30,30,30s30-13.458,30-30S46.542,0,30,0z M30,58C14.561,58,2,45.439,2,30 S14.561,2,30,2s28,12.561,28,28S45.439,58,30,58z"/> </g> </g>
<g id="SVGRepo_iconCarrier"> <g> <path d="M45.563,29.174l-22-15c-0.307-0.208-0.703-0.231-1.031-0.058C22.205,14.289,22,14.629,22,15v30 c0,0.371,0.205,0.711,0.533,0.884C22.679,45.962,22.84,46,23,46c0.197,0,0.394-0.059,0.563-0.174l22-15 C45.836,30.64,46,30.331,46,30S45.836,29.36,45.563,29.174z M24,43.107V16.893L43.225,30L24,43.107z"/> <path d="M30,0C13.458,0,0,13.458,0,30s13.458,30,30,30s30-13.458,30-30S46.542,0,30,0z M30,58C14.561,58,2,45.439,2,30 S14.561,2,30,2s28,12.561,28,28S45.439,58,30,58z"/> </g> </g>
</svg>