<!DOCTYPE svg PUBLIC "-//W3C//DTD SVG 1.1//EN" "http://www.w3.org/Graphics/SVG/1.1/DTD/svg11.dtd">
<!-- Uploaded to: SVG Repo, www.svgrepo.com, Transformed by: SVG Repo Mixer Tools -->
<svg width="80px" height="80px" viewBox="-2.4 -2.4 28.80 28.80" fill="none" xmlns="http://www.w3.org/2000/svg" stroke="#fa0000">
<g id="SVGRepo_bgCarrier" stroke-width="0">
<path transform="translate(-2.4, -2.4), scale(0.8999999999999999)" d="M16,28.712737317197025C18.943799123647615,28.663206973540138,22.05963488942395,29.33465307554727,24.56712247607069,27.791632486525934C27.158133729063252,26.197214340233142,29.023162047485847,23.39437188247709,29.520091015707955,20.392943865865075C29.986573955749705,17.575408453264522,28.237404172796886,15.014852942238413,27.117458838054603,12.38771865145746C26.111161333809992,10.027176044494723,25.333866222708398,7.512630673293515,23.340399128779133,5.896807350106053C21.28025273153493,4.2269364964635985,18.627818693395028,3.7330670541498727,16,3.376358825247735C12.968929927652956,2.964912008196473,9.493569447505285,1.841538946902338,7.053317989282089,3.6859486322431767C4.614510166224271,5.5292671781147,5.014933849115695,9.227870375886132,4.319526805555952,12.204784197804633C3.6953769424224845,14.876658708881447,2.712474097004966,17.458015552754688,3.205648578213083,20.157136777464054C3.7513543941728607,23.14375957817383,4.697042243180626,26.395828135727424,7.220831151976611,28.083489279183127C9.720868439596538,29.75526768061821,12.992930060740656,28.763332212173164,16,28.712737317197025" fill="#ff0000" strokewidth="0"/>
</g>
<g id="SVGRepo_tracerCarrier" stroke-linecap="round" stroke-linejoin="round" stroke="#CCCCCC" stroke-width="0.288"/>
<g id="SVGRepo_iconCarrier"> <rect x="6" y="5" width="4" height="14" rx="1" stroke="#ffffff" stroke-width="2" stroke-linecap="round"/> <rect x="14" y="5" width="4" height="14" rx="1" stroke="#ffffff" stroke-width="2" stroke-linecap="round"/> </g>
</svg>